FiraSans-CondensedSemiLight.ufo
<glyph name="numbersign" format="2">
  <advance width="404"/>
  <unicode hex="0023"/>
  <outline>
    <contour>
      <point x="356" y="662" type="line"/>
      <point x="326" y="662" type="line"/>
      <point x="238" y="0" type="line"/>
      <point x="268" y="0" type="line"/>
    </contour>
    <contour>
      <point x="362" y="222" type="line"/>
      <point x="12" y="222" type="line"/>
      <point x="12" y="194" type="line"/>
      <point x="362" y="194" type="line"/>
    </contour>
    <contour>
      <point x="166" y="662" type="line"/>
      <point x="136" y="662" type="line"/>
      <point x="48" y="0" type="line"/>
      <point x="78" y="0" type="line"/>
    </contour>
    <contour>
      <point x="392" y="484" type="line"/>
      <point x="42" y="484" type="line"/>
      <point x="42" y="456" type="line"/>
      <point x="392" y="456" type="line"/>
    </contour>
  </outline>
</glyph>
<glyph name="quotesingle" format="2">
  <advance width="170"/>
  <unicode hex="0027"/>
  <outline>
    <contour>
      <point x="73" y="439" type="line"/>
      <point x="97" y="439" type="line"/>
      <point x="100" y="682" type="line"/>
      <point x="70" y="682" type="line"/>
    </contour>
  </outline>
</glyph>
<glyph name="parenleft" format="2">
  <advance width="265"/>
  <unicode hex="0028"/>
  <outline>
    <contour>
      <point x="195" y="831" type="line"/>
      <point x="116" y="699"/>
      <point x="51" y="579"/>
      <point x="51" y="350" type="curve"/>
      <point x="51" y="121"/>
      <point x="116" y="1"/>
      <point x="195" y="-131" type="curve"/>
      <point x="214" y="-119" type="line"/>
      <point x="141" y="12"/>
      <point x="81" y="125"/>
      <point x="81" y="350" type="curve"/>
      <point x="81" y="574"/>
      <point x="141" y="688"/>
      <point x="214" y="819" type="curve"/>
    </contour>
  </outline>
</glyph>
<glyph name="asterisk" format="2">
  <advance width="366"/>
  <unicode hex="002A"/>
  <outline>
    <contour>
      <point x="183" y="559" type="line"/>
      <point x="181" y="543" type="line"/>
      <point x="256" y="414" type="line"/>
      <point x="280" y="429" type="line"/>
      <point x="199" y="556" type="line"/>
    </contour>
    <contour>
      <point x="197" y="734" type="line"/>
      <point x="169" y="734" type="line"/>
      <point x="171" y="569" type="line"/>
      <point x="183" y="559" type="line"/>
      <point x="195" y="569" type="line"/>
    </contour>
    <contour>
      <point x="315" y="625" type="line"/>
      <point x="191" y="572" type="line"/>
      <point x="183" y="559" type="line"/>
      <point x="197" y="552" type="line"/>
      <point x="326" y="599" type="line"/>
    </contour>
    <contour>
      <point x="51" y="625" type="line"/>
      <point x="40" y="599" type="line"/>
      <point x="169" y="551" type="line"/>
      <point x="183" y="559" type="line"/>
      <point x="175" y="571" type="line"/>
    </contour>
    <contour>
      <point x="183" y="559" type="line"/>
      <point x="168" y="554" type="line"/>
      <point x="86" y="429" type="line"/>
      <point x="110" y="414" type="line"/>
      <point x="186" y="543" type="line"/>
    </contour>
  </outline>
</glyph>
<glyph name="plus" format="2">
  <advance width="400"/>
  <unicode hex="002B"/>
  <outline>
    <contour>
      <point x="216" y="496" type="line"/>
      <point x="186" y="496" type="line"/>
      <point x="186" y="345" type="line"/>
      <point x="60" y="345" type="line"/>
      <point x="60" y="316" type="line"/>
      <point x="186" y="316" type="line"/>
      <point x="186" y="165" type="line"/>
      <point x="216" y="165" type="line"/>
      <point x="216" y="316" type="line"/>
      <point x="340" y="316" type="line"/>
      <point x="340" y="345" type="line"/>
      <point x="216" y="345" type="line"/>
    </contour>
  </outline>
</glyph>
<glyph name="comma" format="2">
  <advance width="174"/>
  <unicode hex="002C"/>
  <outline>
    <contour>
      <point x="90" y="48" type="curve" smooth="yes"/>
      <point x="74" y="48"/>
      <point x="61" y="36"/>
      <point x="61" y="19" type="curve" smooth="yes"/>
      <point x="61" y="7"/>
      <point x="68" y="-3"/>
      <point x="80" y="-8" type="curve"/>
      <point x="45" y="-139" type="line"/>
      <point x="67" y="-139" type="line"/>
      <point x="108" y="-23" type="line" smooth="yes"/>
      <point x="114" y="-7"/>
      <point x="119" y="5"/>
      <point x="119" y="19" type="curve" smooth="yes"/>
      <point x="119" y="36"/>
      <point x="108" y="48"/>
    </contour>
  </outline>
</glyph>
<glyph name="period" format="2">
  <advance width="168"/>
  <unicode hex="002E"/>
  <outline>
    <contour>
      <point x="84" y="48" type="curve" smooth="yes"/>
      <point x="66" y="48"/>
      <point x="55" y="34"/>
      <point x="55" y="19" type="curve" smooth="yes"/>
      <point x="55" y="4"/>
      <point x="66" y="-10"/>
      <point x="84" y="-10" type="curve" smooth="yes"/>
      <point x="102" y="-10"/>
      <point x="113" y="4"/>
      <point x="113" y="19" type="curve" smooth="yes"/>
      <point x="113" y="34"/>
      <point x="102" y="48"/>
    </contour>
  </outline>
</glyph>
<glyph name="slash" format="2">
  <advance width="426"/>
  <unicode hex="002F"/>
  <outline>
    <contour>
      <point x="296" y="799" type="line"/>
      <point x="104" y="-90" type="line"/>
      <point x="129" y="-96" type="line"/>
      <point x="321" y="793" type="line"/>
    </contour>
  </outline>
</glyph>
<glyph name="four" format="2">
  <advance width="418"/>
  <unicode hex="0034"/>
  <outline>
    <contour>
      <point x="207" y="674" type="line"/>
      <point x="40" y="208" type="line"/>
      <point x="40" y="183" type="line"/>
      <point x="386" y="183" type="line"/>
      <point x="386" y="211" type="line"/>
      <point x="71" y="211" type="line"/>
      <point x="233" y="665" type="line"/>
    </contour>
    <contour>
      <point x="311" y="418" type="line"/>
      <point x="286" y="418" type="line"/>
      <point x="282" y="204" type="line"/>
      <point x="282" y="0" type="line"/>
      <point x="311" y="0" type="line"/>
    </contour>
  </outline>
</glyph>
<glyph name="seven" format="2">
  <advance width="355"/>
  <unicode hex="0037"/>
  <outline>
    <contour>
      <point x="323" y="662" type="line"/>
      <point x="28" y="662" type="line"/>
      <point x="28" y="634" type="line"/>
      <point x="292" y="634" type="line"/>
      <point x="74" y="4" type="line"/>
      <point x="102" y="-6" type="line"/>
      <point x="323" y="637" type="line"/>
    </contour>
  </outline>
</glyph>
<glyph name="less" format="2">
  <advance width="404"/>
  <unicode hex="003C"/>
  <outline>
    <contour>
      <point x="331" y="508" type="line"/>
      <point x="57" y="344" type="line"/>
      <point x="57" y="322" type="line"/>
      <point x="332" y="153" type="line"/>
      <point x="347" y="177" type="line"/>
      <point x="86" y="333" type="line"/>
      <point x="347" y="485" type="line"/>
    </contour>
  </outline>
</glyph>
<glyph name="G" format="2">
  <advance width="501"/>
  <unicode hex="0047"/>
  <anchor x="277" y="0" name="bottom"/>
  <anchor x="287" y="682" name="top"/>
  <outline>
    <contour>
      <point x="286" y="692" type="curve" smooth="yes"/>
      <point x="175" y="692"/>
      <point x="60" y="583"/>
      <point x="60" y="345" type="curve" smooth="yes"/>
      <point x="60" y="109"/>
      <point x="153" y="-10"/>
      <point x="291" y="-10" type="curve" smooth="yes"/>
      <point x="343" y="-10"/>
      <point x="397" y="8"/>
      <point x="444" y="42" type="curve"/>
      <point x="444" y="359" type="line"/>
      <point x="294" y="359" type="line"/>
      <point x="298" y="330" type="line"/>
      <point x="414" y="330" type="line"/>
      <point x="414" y="58" type="line"/>
      <point x="377" y="33"/>
      <point x="341" y="19"/>
      <point x="289" y="19" type="curve" smooth="yes"/>
      <point x="171" y="19"/>
      <point x="92" y="125"/>
      <point x="92" y="345" type="curve" smooth="yes"/>
      <point x="92" y="574"/>
      <point x="193" y="663"/>
      <point x="286" y="663" type="curve" smooth="yes"/>
      <point x="338" y="663"/>
      <point x="373" y="647"/>
      <point x="413" y="610" type="curve"/>
      <point x="432" y="631" type="line"/>
      <point x="388" y="672"/>
      <point x="348" y="692"/>
    </contour>
  </outline>
</glyph>
<glyph name="H" format="2">
  <advance width="545"/>
  <unicode hex="0048"/>
  <anchor x="273" y="0" name="bottom"/>
  <anchor x="456" y="0" name="bottomright"/>
  <anchor x="271" y="341" name="center"/>
  <anchor x="271" y="682" name="top"/>
  <anchor x="74" y="682" name="topleft"/>
  <outline>
    <contour>
      <point x="417" y="0" type="line"/>
      <point x="448" y="0" type="line"/>
      <point x="448" y="682" type="line"/>
      <point x="417" y="682" type="line"/>
      <point x="417" y="373" type="line"/>
      <point x="128" y="373" type="line"/>
      <point x="128" y="682" type="line"/>
      <point x="97" y="682" type="line"/>
      <point x="97" y="0" type="line"/>
      <point x="128" y="0" type="line"/>
      <point x="128" y="345" type="line"/>
      <point x="417" y="345" type="line"/>
    </contour>
  </outline>
</glyph>
<glyph name="J" format="2">
  <advance width="231"/>
  <unicode hex="004A"/>
  <anchor x="115" y="-193" name="bottom"/>
  <anchor x="122" y="682" name="top"/>
  <outline>
    <contour>
      <point x="139" y="682" type="line"/>
      <point x="108" y="682" type="line"/>
      <point x="108" y="90" type="line" smooth="yes"/>
      <point x="108" y="-4"/>
      <point x="90" y="-37"/>
      <point x="15" y="-83" type="curve"/>
      <point x="24" y="-104" type="line"/>
      <point x="116" y="-54"/>
      <point x="139" y="-15"/>
      <point x="139" y="88" type="curve" smooth="yes"/>
    </contour>
  </outline>
</glyph>
<glyph name="K" format="2">
  <advance width="438"/>
  <unicode hex="004B"/>
  <anchor x="248" y="0" name="bottom"/>
  <anchor x="241" y="682" name="top"/>
  <outline>
    <contour>
      <point x="414" y="682" type="line"/>
      <point x="380" y="682" type="line"/>
      <point x="131" y="367" type="line"/>
      <point x="393" y="0" type="line"/>
      <point x="428" y="0" type="line"/>
      <point x="167" y="367" type="line"/>
    </contour>
    <contour>
      <point x="128" y="682" type="line"/>
      <point x="97" y="682" type="line"/>
      <point x="97" y="0" type="line"/>
      <point x="128" y="0" type="line"/>
    </contour>
  </outline>
</glyph>
<glyph name="L" format="2">
  <advance width="380"/>
  <unicode hex="004C"/>
  <anchor x="231" y="0" name="bottom"/>
  <anchor x="292" y="354" name="center"/>
  <anchor x="113" y="682" name="top"/>
  <anchor x="152" y="682" name="topright"/>
  <outline>
    <contour>
      <point x="128" y="682" type="line"/>
      <point x="97" y="682" type="line"/>
      <point x="97" y="0" type="line"/>
      <point x="359" y="0" type="line"/>
      <point x="364" y="30" type="line"/>
      <point x="128" y="30" type="line"/>
    </contour>
  </outline>
</glyph>
<glyph name="P" format="2">
  <advance width="457"/>
  <unicode hex="0050"/>
  <anchor x="113" y="0" name="bottom"/>
  <anchor x="232" y="682" name="top"/>
  <anchor x="74" y="682" name="topleft"/>
  <outline>
    <contour>
      <point x="128" y="0" type="line"/>
      <point x="128" y="653" type="line"/>
      <point x="188" y="653" type="line" smooth="yes"/>
      <point x="326" y="653"/>
      <point x="387" y="606"/>
      <point x="387" y="482" type="curve" smooth="yes"/>
      <point x="387" y="352"/>
      <point x="316" y="307"/>
      <point x="187" y="307" type="curve" smooth="yes"/>
      <point x="121" y="307" type="line"/>
      <point x="121" y="278" type="line"/>
      <point x="185" y="278" type="line" smooth="yes"/>
      <point x="334" y="278"/>
      <point x="419" y="338"/>
      <point x="419" y="483" type="curve" smooth="yes"/>
      <point x="419" y="619"/>
      <point x="346" y="682"/>
      <point x="188" y="682" type="curve" smooth="yes"/>
      <point x="97" y="682" type="line"/>
      <point x="97" y="0" type="line"/>
    </contour>
  </outline>
</glyph>
<glyph name="T" format="2">
  <advance width="394"/>
  <unicode hex="0054"/>
  <anchor x="197" y="0" name="bottom"/>
  <anchor x="221" y="0" name="bottomright"/>
  <anchor x="197" y="348" name="center"/>
  <anchor x="197" y="682" name="top"/>
  <outline>
    <contour>
      <point x="386" y="682" type="line"/>
      <point x="12" y="682" type="line"/>
      <point x="12" y="653" type="line"/>
      <point x="182" y="653" type="line"/>
      <point x="182" y="0" type="line"/>
      <point x="213" y="0" type="line"/>
      <point x="213" y="653" type="line"/>
      <point x="382" y="653" type="line"/>
    </contour>
  </outline>
</glyph>
<glyph name="U" format="2">
  <advance width="526"/>
  <unicode hex="0055"/>
  <anchor x="263" y="0" name="bottom"/>
  <anchor x="334" y="0" name="ogonek"/>
  <anchor x="263" y="682" name="top"/>
  <anchor x="447" y="682" name="topright"/>
  <outline>
    <contour>
      <point x="439" y="682" type="line"/>
      <point x="408" y="682" type="line"/>
      <point x="408" y="181" type="line" smooth="yes"/>
      <point x="408" y="89"/>
      <point x="366" y="19"/>
      <point x="263" y="19" type="curve" smooth="yes"/>
      <point x="161" y="19"/>
      <point x="118" y="86"/>
      <point x="118" y="181" type="curve" smooth="yes"/>
      <point x="118" y="682" type="line"/>
      <point x="87" y="682" type="line"/>
      <point x="87" y="178" type="line" smooth="yes"/>
      <point x="87" y="73"/>
      <point x="141" y="-10"/>
      <point x="263" y="-10" type="curve" smooth="yes"/>
      <point x="385" y="-10"/>
      <point x="439" y="73"/>
      <point x="439" y="178" type="curve" smooth="yes"/>
    </contour>
  </outline>
</glyph>
<glyph name="V" format="2">
  <advance width="443"/>
  <unicode hex="0056"/>
  <anchor x="222" y="0" name="bottom"/>
  <anchor x="222" y="682" name="top"/>
  <outline>
    <contour>
      <point x="424" y="682" type="line"/>
      <point x="393" y="682" type="line"/>
      <point x="222" y="29" type="line"/>
      <point x="50" y="682" type="line"/>
      <point x="19" y="682" type="line"/>
      <point x="203" y="0" type="line"/>
      <point x="240" y="0" type="line"/>
    </contour>
  </outline>
</glyph>
<glyph name="W" format="2">
  <advance width="664"/>
  <unicode hex="0057"/>
  <anchor x="332" y="0" name="bottom"/>
  <anchor x="332" y="682" name="top"/>
  <outline>
    <contour>
      <point x="632" y="682" type="line"/>
      <point x="602" y="682" type="line"/>
      <point x="484" y="32" type="line"/>
      <point x="351" y="682" type="line"/>
      <point x="312" y="682" type="line"/>
      <point x="181" y="32" type="line"/>
      <point x="63" y="682" type="line"/>
      <point x="32" y="682" type="line"/>
      <point x="161" y="0" type="line"/>
      <point x="199" y="0" type="line"/>
      <point x="332" y="652" type="line"/>
      <point x="464" y="0" type="line"/>
      <point x="503" y="0" type="line"/>
    </contour>
  </outline>
</glyph>
<glyph name="X" format="2">
  <advance width="407"/>
  <unicode hex="0058"/>
  <anchor x="202" y="0" name="bottom"/>
  <anchor x="374" y="0" name="bottomright"/>
  <anchor x="202" y="682" name="top"/>
  <outline>
    <contour>
      <point x="61" y="682" type="line"/>
      <point x="29" y="682" type="line"/>
      <point x="183" y="369" type="line"/>
      <point x="201" y="350" type="line"/>
      <point x="364" y="0" type="line"/>
      <point x="396" y="0" type="line"/>
      <point x="219" y="370" type="line"/>
      <point x="201" y="388" type="line"/>
    </contour>
    <contour>
      <point x="371" y="682" type="line"/>
      <point x="339" y="682" type="line"/>
      <point x="201" y="388" type="line"/>
      <point x="183" y="369" type="line"/>
      <point x="11" y="0" type="line"/>
      <point x="43" y="0" type="line"/>
      <point x="201" y="350" type="line"/>
      <point x="219" y="370" type="line"/>
    </contour>
  </outline>
</glyph>
<glyph name="Y" format="2">
  <advance width="414"/>
  <unicode hex="0059"/>
  <anchor x="209" y="0" name="bottom"/>
  <anchor x="207" y="682" name="top"/>
  <anchor x="11" y="682" name="topleft"/>
  <outline>
    <contour>
      <point x="399" y="682" type="line"/>
      <point x="367" y="682" type="line"/>
      <point x="209" y="299" type="line"/>
      <point x="48" y="682" type="line"/>
      <point x="15" y="682" type="line"/>
      <point x="193" y="269" type="line"/>
      <point x="193" y="0" type="line"/>
      <point x="224" y="0" type="line"/>
      <point x="224" y="270" type="line"/>
    </contour>
  </outline>
</glyph>
<glyph name="Z" format="2">
  <advance width="420"/>
  <unicode hex="005A"/>
  <anchor x="212" y="0" name="bottom"/>
  <anchor x="211" y="682" name="top"/>
  <outline>
    <contour>
      <point x="379" y="682" type="line"/>
      <point x="63" y="682" type="line"/>
      <point x="63" y="653" type="line"/>
      <point x="347" y="653" type="line"/>
      <point x="32" y="28" type="line"/>
      <point x="32" y="0" type="line"/>
      <point x="367" y="0" type="line"/>
      <point x="371" y="30" type="line"/>
      <point x="64" y="30" type="line"/>
      <point x="379" y="655" type="line"/>
    </contour>
  </outline>
</glyph>
<glyph name="bracketleft" format="2">
  <advance width="258"/>
  <unicode hex="005B"/>
  <outline>
    <contour>
      <point x="195" y="799" type="line"/>
      <point x="79" y="799" type="line"/>
      <point x="79" y="-109" type="line"/>
      <point x="195" y="-109" type="line"/>
      <point x="195" y="-86" type="line"/>
      <point x="105" y="-86" type="line"/>
      <point x="105" y="776" type="line"/>
      <point x="195" y="776" type="line"/>
    </contour>
  </outline>
</glyph>
<glyph name="bracketright" format="2">
  <advance width="258"/>
  <unicode hex="005D"/>
  <outline>
    <contour>
      <point x="179" y="799" type="line"/>
      <point x="63" y="799" type="line"/>
      <point x="63" y="776" type="line"/>
      <point x="152" y="776" type="line"/>
      <point x="152" y="-86" type="line"/>
      <point x="63" y="-86" type="line"/>
      <point x="63" y="-109" type="line"/>
      <point x="179" y="-109" type="line"/>
    </contour>
  </outline>
</glyph>
<glyph name="asciicircum" format="2">
  <advance width="431"/>
  <unicode hex="005E"/>
  <outline>
    <contour>
      <point x="227" y="826" type="line"/>
      <point x="204" y="826" type="line"/>
      <point x="55" y="527" type="line"/>
      <point x="91" y="527" type="line"/>
      <point x="215" y="788" type="line"/>
      <point x="338" y="527" type="line"/>
      <point x="376" y="527" type="line"/>
    </contour>
  </outline>
</glyph>
<glyph name="underscore" format="2">
  <advance width="432"/>
  <unicode hex="005F"/>
  <outline>
    <contour>
      <point x="32" y="-105" type="line"/>
      <point x="400" y="-105" type="line"/>
      <point x="400" y="-77" type="line"/>
      <point x="32" y="-77" type="line"/>
    </contour>
  </outline>
</glyph>
<glyph name="d" format="2">
  <advance width="470"/>
  <unicode hex="0064"/>
  <anchor x="241" y="0" name="bottom"/>
  <anchor x="237" y="260" name="center"/>
  <anchor x="226" y="734" name="top"/>
  <anchor x="399" y="734" name="topright"/>
  <outline>
    <contour>
      <point x="225" y="530" type="curve" smooth="yes"/>
      <point x="121" y="530"/>
      <point x="56" y="426"/>
      <point x="56" y="258" type="curve" smooth="yes"/>
      <point x="56" y="84"/>
      <point x="119" y="-10"/>
      <point x="217" y="-10" type="curve" smooth="yes"/>
      <point x="287" y="-10"/>
      <point x="327" y="37"/>
      <point x="351" y="91" type="curve"/>
      <point x="351" y="141" type="line"/>
      <point x="321" y="63"/>
      <point x="282" y="18"/>
      <point x="217" y="18" type="curve" smooth="yes"/>
      <point x="138" y="18"/>
      <point x="89" y="99"/>
      <point x="88" y="258" type="curve" smooth="yes"/>
      <point x="87" y="420"/>
      <point x="144" y="502"/>
      <point x="225" y="502" type="curve" smooth="yes"/>
      <point x="289" y="502"/>
      <point x="327" y="454"/>
      <point x="352" y="403" type="curve"/>
      <point x="353" y="446" type="line"/>
      <point x="330" y="486"/>
      <point x="292" y="530"/>
    </contour>
    <contour>
      <point x="347" y="738" type="line"/>
      <point x="347" y="117" type="line"/>
      <point x="347" y="96" type="line"/>
      <point x="350" y="0" type="line"/>
      <point x="377" y="0" type="line"/>
      <point x="377" y="734" type="line"/>
    </contour>
  </outline>
</glyph>
<glyph name="h" format="2">
  <advance width="478"/>
  <unicode hex="0068"/>
  <anchor x="242" y="0" name="bottom"/>
  <anchor x="243" y="260" name="center"/>
  <anchor x="243" y="734" name="top"/>
  <outline>
    <contour>
      <point x="360" y="0" type="line"/>
      <point x="390" y="0" type="line"/>
      <point x="390" y="370" type="line" smooth="yes"/>
      <point x="390" y="472"/>
      <point x="351" y="530"/>
      <point x="274" y="530" type="curve" smooth="yes"/>
      <point x="200" y="530"/>
      <point x="153" y="479"/>
      <point x="115" y="407" type="curve"/>
      <point x="123" y="379" type="line"/>
      <point x="162" y="453"/>
      <point x="209" y="503"/>
      <point x="271" y="503" type="curve" smooth="yes"/>
      <point x="330" y="503"/>
      <point x="360" y="459"/>
      <point x="360" y="366" type="curve" smooth="yes"/>
    </contour>
    <contour>
      <point x="93" y="0" type="line"/>
      <point x="123" y="0" type="line"/>
      <point x="123" y="739" type="line"/>
      <point x="93" y="734" type="line"/>
    </contour>
  </outline>
</glyph>
<glyph name="p" format="2">
  <advance width="466"/>
  <unicode hex="0070"/>
  <anchor x="235" y="-193" name="bottom"/>
  <anchor x="235" y="520" name="top"/>
  <outline>
    <contour>
      <point x="255" y="530" type="curve" smooth="yes"/>
      <point x="193" y="530"/>
      <point x="148" y="490"/>
      <point x="116" y="434" type="curve"/>
      <point x="118" y="398" type="line"/>
      <point x="154" y="460"/>
      <point x="194" y="502"/>
      <point x="255" y="502" type="curve" smooth="yes"/>
      <point x="334" y="502"/>
      <point x="378" y="429"/>
      <point x="378" y="264" type="curve" smooth="yes"/>
      <point x="378" y="96"/>
      <point x="331" y="18"/>
      <point x="248" y="18" type="curve" smooth="yes"/>
      <point x="193" y="18"/>
      <point x="152" y="58"/>
      <point x="118" y="117" type="curve"/>
      <point x="116" y="80" type="line"/>
      <point x="142" y="35"/>
      <point x="186" y="-10"/>
      <point x="250" y="-10" type="curve" smooth="yes"/>
      <point x="349" y="-10"/>
      <point x="410" y="83"/>
      <point x="410" y="264" type="curve" smooth="yes"/>
      <point x="410" y="447"/>
      <point x="353" y="530"/>
    </contour>
    <contour>
      <point x="119" y="520" type="line"/>
      <point x="93" y="520" type="line"/>
      <point x="93" y="-199" type="line"/>
      <point x="123" y="-193" type="line"/>
      <point x="123" y="412" type="line"/>
      <point x="122" y="421" type="line"/>
    </contour>
  </outline>
</glyph>
<glyph name="v" format="2">
  <advance width="383"/>
  <unicode hex="0076"/>
  <anchor x="195" y="0" name="bottom"/>
  <anchor x="192" y="520" name="top"/>
  <outline>
    <contour>
      <point x="363" y="520" type="line"/>
      <point x="332" y="520" type="line"/>
      <point x="195" y="26" type="line"/>
      <point x="52" y="520" type="line"/>
      <point x="20" y="520" type="line"/>
      <point x="177" y="0" type="line"/>
      <point x="214" y="0" type="line"/>
    </contour>
  </outline>
</glyph>
<glyph name="y" format="2">
  <advance width="379"/>
  <unicode hex="0079"/>
  <anchor x="192" y="-193" name="bottom"/>
  <anchor x="190" y="520" name="top"/>
  <outline>
    <contour>
      <point x="359" y="520" type="line"/>
      <point x="328" y="520" type="line"/>
      <point x="192" y="23" type="line"/>
      <point x="51" y="520" type="line"/>
      <point x="20" y="520" type="line"/>
      <point x="171" y="0" type="line"/>
      <point x="183" y="0" type="line"/>
      <point x="153" y="-100"/>
      <point x="134" y="-142"/>
      <point x="48" y="-173" type="curve"/>
      <point x="52" y="-197" type="line"/>
      <point x="147" y="-165"/>
      <point x="178" y="-117"/>
      <point x="210" y="-2" type="curve" smooth="yes"/>
    </contour>
  </outline>
</glyph>
<glyph name="z" format="2">
  <advance width="339"/>
  <unicode hex="007A"/>
  <anchor x="170" y="0" name="bottom"/>
  <anchor x="176" y="520" name="top"/>
  <outline>
    <contour>
      <point x="310" y="520" type="line"/>
      <point x="44" y="520" type="line"/>
      <point x="44" y="492" type="line"/>
      <point x="277" y="492" type="line"/>
      <point x="24" y="25" type="line"/>
      <point x="24" y="0" type="line"/>
      <point x="303" y="0" type="line"/>
      <point x="306" y="28" type="line"/>
      <point x="57" y="28" type="line"/>
      <point x="310" y="495" type="line"/>
    </contour>
  </outline>
</glyph>
<glyph name="bar" format="2">
  <advance width="335"/>
  <unicode hex="007C"/>
  <outline>
    <contour>
      <point x="182" y="802" type="line"/>
      <point x="153" y="802" type="line"/>
      <point x="153" y="-99" type="line"/>
      <point x="182" y="-99" type="line"/>
    </contour>
  </outline>
</glyph>
<glyph name="exclamdown" format="2">
  <advance width="218"/>
  <unicode hex="00A1"/>
  <outline>
    <contour>
      <point x="123" y="251" type="line"/>
      <point x="95" y="251" type="line"/>
      <point x="94" y="-193" type="line"/>
      <point x="124" y="-193" type="line"/>
    </contour>
    <contour>
      <point x="109" y="458" type="curve" smooth="yes"/>
      <point x="91" y="458"/>
      <point x="80" y="444"/>
      <point x="80" y="429" type="curve" smooth="yes"/>
      <point x="80" y="414"/>
      <point x="91" y="400"/>
      <point x="109" y="400" type="curve" smooth="yes"/>
      <point x="127" y="400"/>
      <point x="138" y="414"/>
      <point x="138" y="429" type="curve" smooth="yes"/>
      <point x="138" y="444"/>
      <point x="127" y="458"/>
    </contour>
  </outline>
</glyph>
<glyph name="cent" format="2">
  <advance width="374"/>
  <unicode hex="00A2"/>
  <anchor x="232" y="0" name="bottom"/>
  <anchor x="232" y="520" name="top"/>
  <outline>
    <contour>
      <point x="246" y="677" type="line"/>
      <point x="220" y="677" type="line"/>
      <point x="220" y="527" type="line"/>
      <point x="246" y="527" type="line"/>
    </contour>
    <contour>
      <point x="219" y="-7" type="line"/>
      <point x="219" y="-147" type="line"/>
      <point x="246" y="-147" type="line"/>
      <point x="246" y="-6" type="line"/>
    </contour>
    <component base="c"/>
  </outline>
</glyph>
<glyph name="yen" format="2">
  <advance width="407"/>
  <unicode hex="00A5"/>
  <outline>
    <contour>
      <point x="392" y="662" type="line"/>
      <point x="360" y="662" type="line"/>
      <point x="205" y="333" type="line"/>
      <point x="48" y="662" type="line"/>
      <point x="15" y="662" type="line"/>
      <point x="189" y="310" type="line"/>
      <point x="189" y="0" type="line"/>
      <point x="220" y="0" type="line"/>
      <point x="220" y="309" type="line"/>
    </contour>
    <contour>
      <point x="330" y="191" type="line"/>
      <point x="80" y="191" type="line"/>
      <point x="80" y="162" type="line"/>
      <point x="330" y="162" type="line"/>
    </contour>
    <contour>
      <point x="330" y="332" type="line"/>
      <point x="80" y="332" type="line"/>
      <point x="80" y="304" type="line"/>
      <point x="330" y="304" type="line"/>
    </contour>
  </outline>
</glyph>
<glyph name="brokenbar" format="2">
  <advance width="335"/>
  <unicode hex="00A6"/>
  <outline>
    <contour>
      <point x="182" y="802" type="line"/>
      <point x="153" y="802" type="line"/>
      <point x="153" y="443" type="line"/>
      <point x="182" y="443" type="line"/>
    </contour>
    <contour>
      <point x="182" y="262" type="line"/>
      <point x="153" y="262" type="line"/>
      <point x="153" y="-99" type="line"/>
      <point x="182" y="-99" type="line"/>
    </contour>
  </outline>
</glyph>
<glyph name="logicalnot" format="2">
  <advance width="408"/>
  <unicode hex="00AC"/>
  <outline>
    <contour>
      <point x="348" y="334" type="line"/>
      <point x="60" y="334" type="line"/>
      <point x="60" y="306" type="line"/>
      <point x="317" y="306" type="line"/>
      <point x="317" y="191" type="line"/>
      <point x="348" y="191" type="line"/>
    </contour>
  </outline>
</glyph>
<glyph name="Eth" format="2">
  <advance width="513"/>
  <unicode hex="00D0"/>
  <anchor x="246" y="0" name="bottom"/>
  <anchor x="261" y="341" name="center"/>
  <anchor x="244" y="682" name="top"/>
  <outline>
    <contour>
      <point x="281" y="367" type="line"/>
      <point x="97" y="367" type="line"/>
      <point x="20" y="367" type="line"/>
      <point x="20" y="337" type="line"/>
      <point x="281" y="337" type="line"/>
    </contour>
    <component base="D"/>
  </outline>
</glyph>
<glyph name="thorn" format="2">
  <advance width="466"/>
  <unicode hex="00FE"/>
  <anchor x="235" y="-193" name="bottom"/>
  <anchor x="235" y="734" name="top"/>
  <outline>
    <contour>
      <point x="255" y="530" type="curve" smooth="yes"/>
      <point x="193" y="530"/>
      <point x="148" y="490"/>
      <point x="116" y="433" type="curve"/>
      <point x="118" y="398" type="line"/>
      <point x="154" y="460"/>
      <point x="194" y="502"/>
      <point x="255" y="502" type="curve" smooth="yes"/>
      <point x="334" y="502"/>
      <point x="378" y="429"/>
      <point x="378" y="264" type="curve" smooth="yes"/>
      <point x="378" y="96"/>
      <point x="331" y="18"/>
      <point x="248" y="18" type="curve" smooth="yes"/>
      <point x="193" y="18"/>
      <point x="152" y="58"/>
      <point x="118" y="117" type="curve"/>
      <point x="116" y="81" type="line"/>
      <point x="142" y="35"/>
      <point x="186" y="-10"/>
      <point x="250" y="-10" type="curve" smooth="yes"/>
      <point x="349" y="-10"/>
      <point x="410" y="83"/>
      <point x="410" y="264" type="curve" smooth="yes"/>
      <point x="410" y="447"/>
      <point x="353" y="530"/>
    </contour>
    <contour>
      <point x="123" y="738" type="line"/>
      <point x="93" y="734" type="line"/>
      <point x="93" y="-199" type="line"/>
      <point x="123" y="-193" type="line"/>
    </contour>
  </outline>
</glyph>
<glyph name="acutecomb" format="2">
  <unicode hex="0301"/>
  <anchor x="119" y="520" name="_top"/>
  <anchor x="119" y="764" name="top"/>
  <outline>
    <contour>
      <point x="176" y="764" type="line"/>
      <point x="29" y="670" type="line"/>
      <point x="41" y="651" type="line"/>
      <point x="193" y="735" type="line"/>
    </contour>
  </outline>
</glyph>
<glyph name="circumflexcomb" format="2">
  <unicode hex="0302"/>
  <anchor x="142" y="520" name="_top"/>
  <anchor x="144" y="769" name="top"/>
  <outline>
    <contour>
      <point x="45" y="653" type="line"/>
      <point x="141" y="738" type="line"/>
      <point x="238" y="653" type="line"/>
      <point x="253" y="667" type="line"/>
      <point x="150" y="769" type="line"/>
      <point x="133" y="769" type="line"/>
      <point x="30" y="667" type="line"/>
    </contour>
  </outline>
</glyph>
<glyph name="macroncomb" format="2">
  <unicode hex="0304"/>
  <anchor x="120" y="520" name="_top"/>
  <anchor x="122" y="711" name="top"/>
  <outline>
    <contour>
      <point x="211" y="684" type="line"/>
      <point x="211" y="711" type="line"/>
      <point x="30" y="711" type="line"/>
      <point x="30" y="684" type="line"/>
    </contour>
  </outline>
</glyph>
<glyph name="figuredash" format="2">
  <advance width="460"/>
  <unicode hex="2012"/>
  <outline>
    <contour>
      <point x="33" y="320" type="line"/>
      <point x="427" y="320" type="line"/>
      <point x="427" y="347" type="line"/>
      <point x="33" y="347" type="line"/>
    </contour>
  </outline>
</glyph>
<glyph name="endash" format="2">
  <advance width="427"/>
  <unicode hex="2013"/>
  <outline>
    <contour>
      <point x="37" y="299" type="line"/>
      <point x="390" y="299" type="line"/>
      <point x="390" y="327" type="line"/>
      <point x="37" y="327" type="line"/>
    </contour>
  </outline>
</glyph>
<glyph name="emdash" format="2">
  <advance width="639"/>
  <unicode hex="2014"/>
  <outline>
    <contour>
      <point x="37" y="300" type="line"/>
      <point x="602" y="300" type="line"/>
      <point x="602" y="327" type="line"/>
      <point x="37" y="327" type="line"/>
    </contour>
  </outline>
</glyph>
<glyph name="quotesinglbase" format="2">
  <advance width="185"/>
  <unicode hex="201A"/>
  <outline>
    <contour>
      <point x="94" y="49" type="curve" smooth="yes"/>
      <point x="76" y="49"/>
      <point x="66" y="36"/>
      <point x="66" y="20" type="curve" smooth="yes"/>
      <point x="66" y="10"/>
      <point x="71" y="0"/>
      <point x="82" y="-5" type="curve"/>
      <point x="49" y="-125" type="line"/>
      <point x="70" y="-125" type="line"/>
      <point x="111" y="-16" type="line" smooth="yes"/>
      <point x="119" y="4"/>
      <point x="121" y="12"/>
      <point x="121" y="20" type="curve" smooth="yes"/>
      <point x="121" y="36"/>
      <point x="112" y="49"/>
    </contour>
  </outline>
</glyph>
<glyph name="dagger" format="2">
  <advance width="413"/>
  <unicode hex="2020"/>
  <outline>
    <contour>
      <point x="222" y="662" type="line"/>
      <point x="191" y="662" type="line"/>
      <point x="191" y="503" type="line"/>
      <point x="46" y="503" type="line"/>
      <point x="46" y="475" type="line"/>
      <point x="191" y="475" type="line"/>
      <point x="191" y="0" type="line"/>
      <point x="222" y="0" type="line"/>
      <point x="222" y="475" type="line"/>
      <point x="367" y="475" type="line"/>
      <point x="367" y="503" type="line"/>
      <point x="222" y="503" type="line"/>
    </contour>
  </outline>
</glyph>
<glyph name="daggerdbl" format="2">
  <advance width="416"/>
  <unicode hex="2021"/>
  <outline>
    <contour>
      <point x="370" y="213" type="line"/>
      <point x="46" y="213" type="line"/>
      <point x="46" y="186" type="line"/>
      <point x="370" y="186" type="line"/>
    </contour>
    <component base="dagger" xOffset="1"/>
  </outline>
</glyph>
<glyph name="bullet" format="2">
  <advance width="224"/>
  <unicode hex="2022"/>
  <outline>
    <contour>
      <point x="112" y="392" type="curve" smooth="yes"/>
      <point x="87" y="392"/>
      <point x="70" y="373"/>
      <point x="70" y="349" type="curve" smooth="yes"/>
      <point x="70" y="326"/>
      <point x="87" y="307"/>
      <point x="112" y="307" type="curve" smooth="yes"/>
      <point x="139" y="307"/>
      <point x="154" y="326"/>
      <point x="154" y="349" type="curve" smooth="yes"/>
      <point x="154" y="373"/>
      <point x="139" y="392"/>
    </contour>
  </outline>
</glyph>
<glyph name="guilsinglleft" format="2">
  <advance width="298"/>
  <unicode hex="2039"/>
  <outline>
    <contour>
      <point x="203" y="507" type="line"/>
      <point x="75" y="298" type="line"/>
      <point x="75" y="278" type="line"/>
      <point x="203" y="70" type="line"/>
      <point x="223" y="83" type="line"/>
      <point x="107" y="288" type="line"/>
      <point x="223" y="494" type="line"/>
    </contour>
  </outline>
</glyph>
<glyph name="guilsinglright" format="2">
  <advance width="298"/>
  <unicode hex="203A"/>
  <outline>
    <contour>
      <point x="94" y="507" type="line"/>
      <point x="75" y="494" type="line"/>
      <point x="191" y="288" type="line"/>
      <point x="75" y="83" type="line"/>
      <point x="94" y="70" type="line"/>
      <point x="223" y="278" type="line"/>
      <point x="223" y="298" type="line"/>
    </contour>
  </outline>
</glyph>
<glyph name="fraction" format="2">
  <advance width="85"/>
  <unicode hex="2044"/>
  <outline>
    <contour>
      <point x="198" y="745" type="line"/>
      <point x="-137" y="-55" type="line"/>
      <point x="-113" y="-65" type="line"/>
      <point x="222" y="735" type="line"/>
    </contour>
  </outline>
</glyph>
<glyph name="numero" format="2">
  <advance width="892"/>
  <unicode hex="2116"/>
  <anchor x="274" y="0" name="bottom"/>
  <anchor x="280" y="682" name="top"/>
  <outline>
    <contour>
      <point x="685" y="682" type="curve" smooth="yes"/>
      <point x="599" y="682"/>
      <point x="543" y="617"/>
      <point x="543" y="479" type="curve" smooth="yes"/>
      <point x="543" y="342"/>
      <point x="597" y="276"/>
      <point x="684" y="276" type="curve" smooth="yes"/>
      <point x="771" y="276"/>
      <point x="827" y="341"/>
      <point x="827" y="481" type="curve" smooth="yes"/>
      <point x="827" y="623"/>
      <point x="773" y="682"/>
    </contour>
    <contour>
      <point x="686" y="655" type="curve" smooth="yes"/>
      <point x="757" y="655"/>
      <point x="797" y="605"/>
      <point x="797" y="481" type="curve" smooth="yes"/>
      <point x="797" y="354"/>
      <point x="754" y="303"/>
      <point x="684" y="303" type="curve" smooth="yes"/>
      <point x="615" y="303"/>
      <point x="573" y="356"/>
      <point x="573" y="479" type="curve" smooth="yes"/>
      <point x="573" y="606"/>
      <point x="617" y="655"/>
    </contour>
    <component base="N"/>
    <component base="minus" xOffset="485" yOffset="-317"/>
  </outline>
</glyph>
<glyph name="product" format="2">
  <advance width="488"/>
  <unicode hex="220F"/>
  <outline>
    <contour>
      <point x="424" y="634" type="line"/>
      <point x="424" y="662" type="line"/>
      <point x="64" y="662" type="line"/>
      <point x="64" y="634" type="line"/>
      <point x="127" y="634" type="line"/>
      <point x="127" y="-199" type="line"/>
      <point x="157" y="-195" type="line"/>
      <point x="157" y="634" type="line"/>
      <point x="331" y="634" type="line"/>
      <point x="331" y="-199" type="line"/>
      <point x="361" y="-195" type="line"/>
      <point x="361" y="634" type="line"/>
    </contour>
  </outline>
</glyph>
<glyph name="summation" format="2">
  <advance width="391"/>
  <unicode hex="2211"/>
  <outline>
    <contour>
      <point x="343" y="662" type="line"/>
      <point x="48" y="662" type="line"/>
      <point x="48" y="646" type="line"/>
      <point x="230" y="334" type="line"/>
      <point x="48" y="14" type="line"/>
      <point x="48" y="0" type="line"/>
      <point x="343" y="0" type="line"/>
      <point x="343" y="28" type="line"/>
      <point x="89" y="28" type="line"/>
      <point x="260" y="327" type="line"/>
      <point x="260" y="342" type="line"/>
      <point x="90" y="634" type="line"/>
      <point x="343" y="634" type="line"/>
    </contour>
  </outline>
</glyph>
<glyph name="notequal" format="2">
  <advance width="400"/>
  <unicode hex="2260"/>
  <outline>
    <contour>
      <point x="295" y="543" type="line"/>
      <point x="86" y="122" type="line"/>
      <point x="107" y="111" type="line"/>
      <point x="316" y="532" type="line"/>
    </contour>
    <component base="equal"/>
  </outline>
</glyph>
<glyph name="lozenge" format="2">
  <advance width="406"/>
  <unicode hex="25CA"/>
  <outline>
    <contour>
      <point x="219" y="662" type="line"/>
      <point x="187" y="662" type="line"/>
      <point x="36" y="333" type="line"/>
      <point x="187" y="0" type="line"/>
      <point x="219" y="0" type="line"/>
      <point x="370" y="333" type="line"/>
    </contour>
    <contour>
      <point x="203" y="635" type="line"/>
      <point x="340" y="333" type="line"/>
      <point x="203" y="26" type="line"/>
      <point x="66" y="333" type="line"/>
    </contour>
  </outline>
</glyph>
<glyph name="acute.sc.loclPLK" format="2">
  <advance width="171"/>
  <anchor x="57" y="560" name="_top"/>
  <outline>
    <contour>
      <point x="113" y="791" type="line"/>
      <point x="30" y="630" type="line"/>
      <point x="47" y="618" type="line"/>
      <point x="141" y="772" type="line"/>
    </contour>
  </outline>
</glyph>
<glyph name="cedilla.case.ALT" format="2">
  <advance width="178"/>
  <anchor x="81" y="0" name="_bottom"/>
  <outline>
    <contour>
      <point x="87" y="16" type="line"/>
      <point x="66" y="16" type="line"/>
      <point x="59" y="-93" type="line"/>
      <point x="110" y="-94"/>
      <point x="132" y="-108"/>
      <point x="132" y="-140" type="curve" smooth="yes"/>
      <point x="132" y="-173"/>
      <point x="111" y="-189"/>
      <point x="85" y="-189" type="curve" smooth="yes"/>
      <point x="63" y="-189"/>
      <point x="48" y="-182"/>
      <point x="37" y="-174" type="curve"/>
      <point x="25" y="-197" type="line"/>
      <point x="39" y="-207"/>
      <point x="58" y="-216"/>
      <point x="85" y="-216" type="curve" smooth="yes"/>
      <point x="126" y="-216"/>
      <point x="162" y="-188"/>
      <point x="162" y="-140" type="curve" smooth="yes"/>
      <point x="162" y="-99"/>
      <point x="138" y="-75"/>
      <point x="87" y="-71" type="curve"/>
    </contour>
  </outline>
</glyph>
<glyph name="d.sc" format="2">
  <advance width="468"/>
  <anchor x="237" y="0" name="bottom"/>
  <anchor x="240" y="280" name="center"/>
  <anchor x="226" y="560" name="top"/>
  <outline>
    <contour>
      <point x="183" y="560" type="curve" smooth="yes"/>
      <point x="97" y="560" type="line"/>
      <point x="97" y="0" type="line"/>
      <point x="186" y="0" type="line" smooth="yes"/>
      <point x="292" y="0"/>
      <point x="408" y="51"/>
      <point x="408" y="285" type="curve" smooth="yes"/>
      <point x="408" y="514"/>
      <point x="301" y="560"/>
    </contour>
    <contour>
      <point x="182" y="532" type="line" smooth="yes"/>
      <point x="280" y="532"/>
      <point x="377" y="502"/>
      <point x="377" y="285" type="curve" smooth="yes"/>
      <point x="377" y="74"/>
      <point x="284" y="28"/>
      <point x="187" y="28" type="curve" smooth="yes"/>
      <point x="127" y="28" type="line"/>
      <point x="127" y="532" type="line"/>
    </contour>
  </outline>
</glyph>
<glyph name="dagger.tf" format="2">
  <advance width="460"/>
  <outline>
    <contour>
      <point x="246" y="682" type="line"/>
      <point x="215" y="682" type="line"/>
      <point x="215" y="523" type="line"/>
      <point x="62" y="523" type="line"/>
      <point x="62" y="495" type="line"/>
      <point x="215" y="495" type="line"/>
      <point x="215" y="0" type="line"/>
      <point x="246" y="0" type="line"/>
      <point x="246" y="495" type="line"/>
      <point x="399" y="495" type="line"/>
      <point x="399" y="523" type="line"/>
      <point x="246" y="523" type="line"/>
    </contour>
  </outline>
</glyph>
<glyph name="daggerdbl.tf" format="2">
  <advance width="460"/>
  <outline>
    <contour>
      <point x="398" y="238" type="line"/>
      <point x="61" y="238" type="line"/>
      <point x="61" y="210" type="line"/>
      <point x="398" y="210" type="line"/>
    </contour>
    <component base="dagger.tf" xOffset="1"/>
  </outline>
</glyph>
<glyph name="f.sc" format="2">
  <advance width="355"/>
  <anchor x="112" y="0" name="bottom"/>
  <anchor x="214" y="560" name="top"/>
  <outline>
    <contour>
      <point x="331" y="560" type="line"/>
      <point x="97" y="560" type="line"/>
      <point x="97" y="0" type="line"/>
      <point x="127" y="0" type="line"/>
      <point x="127" y="269" type="line"/>
      <point x="300" y="269" type="line"/>
      <point x="300" y="296" type="line"/>
      <point x="127" y="296" type="line"/>
      <point x="127" y="532" type="line"/>
      <point x="328" y="532" type="line"/>
    </contour>
  </outline>
</glyph>
<glyph name="four.dnom" format="2">
  <advance width="327"/>
  <outline>
    <contour>
      <point x="155" y="419" type="line"/>
      <point x="48" y="132" type="line"/>
      <point x="48" y="109" type="line"/>
      <point x="278" y="109" type="line"/>
      <point x="278" y="136" type="line"/>
      <point x="75" y="136" type="line"/>
      <point x="179" y="409" type="line"/>
    </contour>
    <contour>
      <point x="231" y="259" type="line"/>
      <point x="207" y="259" type="line"/>
      <point x="203" y="129" type="line"/>
      <point x="203" y="0" type="line"/>
      <point x="231" y="0" type="line"/>
    </contour>
  </outline>
</glyph>
<glyph name="four.tf" format="2">
  <advance width="460"/>
  <outline>
    <contour>
      <point x="223" y="692" type="line"/>
      <point x="56" y="208" type="line"/>
      <point x="56" y="183" type="line"/>
      <point x="402" y="183" type="line"/>
      <point x="402" y="211" type="line"/>
      <point x="86" y="211" type="line"/>
      <point x="249" y="683" type="line"/>
    </contour>
    <contour>
      <point x="327" y="423" type="line"/>
      <point x="302" y="423" type="line"/>
      <point x="298" y="204" type="line"/>
      <point x="298" y="0" type="line"/>
      <point x="327" y="0" type="line"/>
    </contour>
  </outline>
</glyph>
<glyph name="four.tosf" format="2">
  <advance width="460"/>
  <outline>
    <contour>
      <point x="226" y="567" type="line"/>
      <point x="59" y="77" type="line"/>
      <point x="59" y="52" type="line"/>
      <point x="422" y="52" type="line"/>
      <point x="422" y="80" type="line"/>
      <point x="89" y="80" type="line"/>
      <point x="252" y="558" type="line"/>
    </contour>
    <contour>
      <point x="342" y="287" type="line"/>
      <point x="316" y="287" type="line"/>
      <point x="314" y="73" type="line"/>
      <point x="314" y="-102" type="line"/>
      <point x="342" y="-102" type="line"/>
    </contour>
  </outline>
</glyph>
<glyph name="gravecomb.case" format="2">
  <anchor x="112" y="682" name="_top"/>
  <anchor x="114" y="869" name="top"/>
  <outline>
    <contour>
      <point x="46" y="863" type="line"/>
      <point x="30" y="834" type="line"/>
      <point x="181" y="760" type="line"/>
      <point x="192" y="779" type="line"/>
    </contour>
  </outline>
</glyph>
<glyph name="k.sc" format="2">
  <advance width="397"/>
  <anchor x="230" y="0" name="bottom"/>
  <anchor x="224" y="560" name="top"/>
  <outline>
    <contour>
      <point x="375" y="560" type="line"/>
      <point x="343" y="560" type="line"/>
      <point x="129" y="301" type="line"/>
      <point x="352" y="0" type="line"/>
      <point x="387" y="0" type="line"/>
      <point x="164" y="301" type="line"/>
    </contour>
    <contour>
      <point x="127" y="560" type="line"/>
      <point x="97" y="560" type="line"/>
      <point x="97" y="0" type="line"/>
      <point x="127" y="0" type="line"/>
    </contour>
  </outline>
</glyph>
<glyph name="l.sc" format="2">
  <advance width="347"/>
  <anchor x="215" y="0" name="bottom"/>
  <anchor x="277" y="316" name="center"/>
  <anchor x="112" y="560" name="top"/>
  <anchor x="151" y="560" name="topright"/>
  <outline>
    <contour>
      <point x="127" y="560" type="line"/>
      <point x="97" y="560" type="line"/>
      <point x="97" y="0" type="line"/>
      <point x="326" y="0" type="line"/>
      <point x="331" y="29" type="line"/>
      <point x="127" y="29" type="line"/>
    </contour>
  </outline>
</glyph>
<glyph name="lozenge.tf" format="2">
  <advance width="460"/>
  <outline>
    <contour>
      <point x="246" y="682" type="line"/>
      <point x="213" y="682" type="line"/>
      <point x="57" y="343" type="line"/>
      <point x="213" y="0" type="line"/>
      <point x="246" y="0" type="line"/>
      <point x="402" y="343" type="line"/>
    </contour>
    <contour>
      <point x="230" y="655" type="line"/>
      <point x="372" y="343" type="line"/>
      <point x="230" y="26" type="line"/>
      <point x="87" y="343" type="line"/>
    </contour>
  </outline>
</glyph>
<glyph name="lozenge.tosf" format="2">
  <advance width="460"/>
  <outline>
    <contour>
      <point x="246" y="662" type="line"/>
      <point x="214" y="662" type="line"/>
      <point x="63" y="333" type="line"/>
      <point x="214" y="0" type="line"/>
      <point x="246" y="0" type="line"/>
      <point x="397" y="333" type="line"/>
    </contour>
    <contour>
      <point x="230" y="635" type="line"/>
      <point x="367" y="333" type="line"/>
      <point x="230" y="26" type="line"/>
      <point x="93" y="333" type="line"/>
    </contour>
  </outline>
</glyph>
<glyph name="nine.osf" format="2">
  <advance width="431"/>
  <outline>
    <contour>
      <point x="211" y="567" type="curve" smooth="yes"/>
      <point x="115" y="567"/>
      <point x="48" y="494"/>
      <point x="48" y="355" type="curve" smooth="yes"/>
      <point x="48" y="224"/>
      <point x="111" y="151"/>
      <point x="201" y="151" type="curve" smooth="yes"/>
      <point x="265" y="151"/>
      <point x="316" y="192"/>
      <point x="352" y="267" type="curve"/>
      <point x="346" y="299" type="line"/>
      <point x="307" y="222"/>
      <point x="265" y="179"/>
      <point x="202" y="179" type="curve" smooth="yes"/>
      <point x="127" y="179"/>
      <point x="80" y="239"/>
      <point x="80" y="354" type="curve" smooth="yes"/>
      <point x="80" y="482"/>
      <point x="130" y="539"/>
      <point x="212" y="539" type="curve" smooth="yes"/>
      <point x="307" y="539"/>
      <point x="342" y="456"/>
      <point x="343" y="288" type="curve"/>
      <point x="342" y="265" type="line"/>
      <point x="338" y="62"/>
      <point x="249" y="-28"/>
      <point x="94" y="-87" type="curve"/>
      <point x="103" y="-112" type="line"/>
      <point x="277" y="-47"/>
      <point x="373" y="53"/>
      <point x="373" y="297" type="curve" smooth="yes"/>
      <point x="373" y="474"/>
      <point x="324" y="567"/>
    </contour>
  </outline>
</glyph>
<glyph name="o.sc" format="2">
  <advance width="509"/>
  <anchor x="254" y="0" name="bottom"/>
  <anchor x="313" y="0" name="ogonek"/>
  <anchor x="254" y="560" name="top"/>
  <anchor x="88" y="560" name="topleft"/>
  <anchor x="404" y="560" name="topright"/>
  <outline>
    <contour>
      <point x="254" y="568" type="curve" smooth="yes"/>
      <point x="140" y="568"/>
      <point x="60" y="480"/>
      <point x="60" y="278" type="curve" smooth="yes"/>
      <point x="60" y="78"/>
      <point x="139" y="-8"/>
      <point x="254" y="-8" type="curve" smooth="yes"/>
      <point x="372" y="-8"/>
      <point x="449" y="81"/>
      <point x="449" y="279" type="curve" smooth="yes"/>
      <point x="449" y="484"/>
      <point x="370" y="568"/>
    </contour>
    <contour>
      <point x="254" y="540" type="curve"/>
      <point x="352" y="540"/>
      <point x="418" y="470"/>
      <point x="418" y="279" type="curve" smooth="yes"/>
      <point x="418" y="92"/>
      <point x="355" y="20"/>
      <point x="254" y="20" type="curve" smooth="yes"/>
      <point x="158" y="20"/>
      <point x="91" y="92"/>
      <point x="91" y="278" type="curve" smooth="yes"/>
      <point x="91" y="469"/>
      <point x="158" y="540"/>
    </contour>
  </outline>
</glyph>
<glyph name="one.dnom" format="2">
  <advance width="329"/>
  <outline>
    <contour>
      <point x="204" y="411" type="line"/>
      <point x="181" y="411" type="line"/>
      <point x="75" y="336" type="line"/>
      <point x="89" y="316" type="line"/>
      <point x="176" y="378" type="line"/>
      <point x="176" y="0" type="line"/>
      <point x="204" y="0" type="line"/>
    </contour>
  </outline>
</glyph>
<glyph name="one.osf" format="2">
  <advance width="327"/>
  <outline>
    <contour>
      <point x="227" y="560" type="line"/>
      <point x="202" y="560" type="line"/>
      <point x="36" y="440" type="line"/>
      <point x="51" y="418" type="line"/>
      <point x="197" y="524" type="line"/>
      <point x="197" y="0" type="line"/>
      <point x="227" y="0" type="line"/>
    </contour>
  </outline>
</glyph>
<glyph name="one.tosf" format="2">
  <advance width="460"/>
  <outline>
    <contour>
      <point x="272" y="560" type="line"/>
      <point x="247" y="560" type="line"/>
      <point x="81" y="440" type="line"/>
      <point x="96" y="418" type="line"/>
      <point x="242" y="524" type="line"/>
      <point x="242" y="10" type="line"/>
      <point x="272" y="10" type="line"/>
    </contour>
    <contour>
      <point x="398" y="29" type="line"/>
      <point x="98" y="29" type="line"/>
      <point x="98" y="0" type="line"/>
      <point x="398" y="0" type="line"/>
    </contour>
  </outline>
</glyph>
<glyph name="parenleft.dnom" format="2">
  <advance width="329"/>
  <outline>
    <contour>
      <point x="200" y="502" type="line"/>
      <point x="153" y="419"/>
      <point x="109" y="345"/>
      <point x="109" y="194" type="curve"/>
      <point x="109" y="43"/>
      <point x="153" y="-31"/>
      <point x="200" y="-114" type="curve"/>
      <point x="220" y="-101" type="line"/>
      <point x="177" y="-19"/>
      <point x="140" y="51"/>
      <point x="140" y="194" type="curve"/>
      <point x="140" y="337"/>
      <point x="177" y="407"/>
      <point x="220" y="489" type="curve"/>
    </contour>
  </outline>
</glyph>
<glyph name="parenright.dnom" format="2">
  <advance width="329"/>
  <outline>
    <contour>
      <point x="129" y="502" type="curve"/>
      <point x="109" y="489" type="line"/>
      <point x="153" y="407"/>
      <point x="189" y="337"/>
      <point x="189" y="194" type="curve"/>
      <point x="189" y="51"/>
      <point x="153" y="-19"/>
      <point x="109" y="-101" type="curve"/>
      <point x="129" y="-114" type="line"/>
      <point x="177" y="-31"/>
      <point x="220" y="43"/>
      <point x="220" y="194" type="curve"/>
      <point x="220" y="345"/>
      <point x="177" y="419"/>
    </contour>
  </outline>
</glyph>
<glyph name="plus.dnom" format="2">
  <advance width="328"/>
  <outline>
    <contour>
      <point x="177" y="309" type="line"/>
      <point x="151" y="309" type="line"/>
      <point x="151" y="215" type="line"/>
      <point x="70" y="215" type="line"/>
      <point x="70" y="190" type="line"/>
      <point x="151" y="190" type="line"/>
      <point x="151" y="97" type="line"/>
      <point x="177" y="97" type="line"/>
      <point x="177" y="190" type="line"/>
      <point x="258" y="190" type="line"/>
      <point x="258" y="215" type="line"/>
      <point x="177" y="215" type="line"/>
    </contour>
  </outline>
</glyph>
<glyph name="product.tf" format="2">
  <advance width="460"/>
  <outline>
    <contour>
      <point x="410" y="682" type="line"/>
      <point x="50" y="682" type="line"/>
      <point x="50" y="654" type="line"/>
      <point x="113" y="654" type="line"/>
      <point x="113" y="-199" type="line"/>
      <point x="143" y="-195" type="line"/>
      <point x="143" y="654" type="line"/>
      <point x="317" y="654" type="line"/>
      <point x="317" y="-199" type="line"/>
      <point x="347" y="-195" type="line"/>
      <point x="347" y="654" type="line"/>
      <point x="410" y="654" type="line"/>
    </contour>
  </outline>
</glyph>
<glyph name="product.tosf" format="2">
  <advance width="460"/>
  <outline>
    <contour>
      <point x="410" y="634" type="line"/>
      <point x="410" y="662" type="line"/>
      <point x="50" y="662" type="line"/>
      <point x="50" y="634" type="line"/>
      <point x="113" y="634" type="line"/>
      <point x="113" y="-199" type="line"/>
      <point x="143" y="-195" type="line"/>
      <point x="143" y="634" type="line"/>
      <point x="317" y="634" type="line"/>
      <point x="317" y="-199" type="line"/>
      <point x="347" y="-195" type="line"/>
      <point x="347" y="634" type="line"/>
    </contour>
  </outline>
</glyph>
<glyph name="seven.dnom" format="2">
  <advance width="328"/>
  <outline>
    <contour>
      <point x="262" y="411" type="line"/>
      <point x="65" y="411" type="line"/>
      <point x="65" y="384" type="line"/>
      <point x="234" y="384" type="line"/>
      <point x="94" y="5" type="line"/>
      <point x="121" y="-4" type="line"/>
      <point x="262" y="387" type="line"/>
    </contour>
  </outline>
</glyph>
<glyph name="seven.tf" format="2">
  <advance width="460"/>
  <outline>
    <contour>
      <point x="386" y="682" type="line"/>
      <point x="73" y="682" type="line"/>
      <point x="73" y="654" type="line"/>
      <point x="355" y="654" type="line"/>
      <point x="123" y="3" type="line"/>
      <point x="149" y="-8" type="line"/>
      <point x="386" y="657" type="line"/>
    </contour>
  </outline>
</glyph>
<glyph name="seven.tosf" format="2">
  <advance width="460"/>
  <outline>
    <contour>
      <point x="375" y="560" type="line"/>
      <point x="54" y="560" type="line"/>
      <point x="54" y="532" type="line"/>
      <point x="344" y="532" type="line"/>
      <point x="123" y="-103" type="line"/>
      <point x="150" y="-113" type="line"/>
      <point x="375" y="535" type="line"/>
    </contour>
  </outline>
</glyph>
<glyph name="v.sc" format="2">
  <advance width="392"/>
  <anchor x="196" y="0" name="bottom"/>
  <anchor x="196" y="560" name="top"/>
  <outline>
    <contour>
      <point x="373" y="560" type="line"/>
      <point x="343" y="560" type="line"/>
      <point x="196" y="29" type="line"/>
      <point x="50" y="560" type="line"/>
      <point x="19" y="560" type="line"/>
      <point x="178" y="0" type="line"/>
      <point x="214" y="0" type="line"/>
    </contour>
  </outline>
</glyph>
<glyph name="w.sc" format="2">
  <advance width="586"/>
  <anchor x="293" y="0" name="bottom"/>
  <anchor x="294" y="560" name="top"/>
  <outline>
    <contour>
      <point x="554" y="560" type="line"/>
      <point x="525" y="560" type="line"/>
      <point x="427" y="33" type="line"/>
      <point x="311" y="560" type="line"/>
      <point x="276" y="560" type="line"/>
      <point x="163" y="34" type="line"/>
      <point x="62" y="560" type="line"/>
      <point x="32" y="560" type="line"/>
      <point x="143" y="0" type="line"/>
      <point x="179" y="0" type="line"/>
      <point x="293" y="528" type="line"/>
      <point x="409" y="0" type="line"/>
      <point x="445" y="0" type="line"/>
    </contour>
  </outline>
</glyph>
<glyph name="yen.tf" format="2">
  <advance width="460"/>
  <outline>
    <contour>
      <point x="426" y="682" type="line"/>
      <point x="392" y="682" type="line"/>
      <point x="231" y="333" type="line"/>
      <point x="68" y="682" type="line"/>
      <point x="33" y="682" type="line"/>
      <point x="215" y="310" type="line"/>
      <point x="215" y="0" type="line"/>
      <point x="246" y="0" type="line"/>
      <point x="246" y="309" type="line"/>
    </contour>
    <contour>
      <point x="356" y="191" type="line"/>
      <point x="106" y="191" type="line"/>
      <point x="106" y="162" type="line"/>
      <point x="356" y="162" type="line"/>
    </contour>
    <contour>
      <point x="356" y="332" type="line"/>
      <point x="106" y="332" type="line"/>
      <point x="106" y="304" type="line"/>
      <point x="356" y="304" type="line"/>
    </contour>
  </outline>
</glyph>
<glyph name="zero.dnom" format="2">
  <advance width="328"/>
  <outline>
    <contour>
      <point x="164" y="419" type="curve" smooth="yes"/>
      <point x="96" y="419"/>
      <point x="55" y="359"/>
      <point x="55" y="206" type="curve" smooth="yes"/>
      <point x="55" y="55"/>
      <point x="96" y="-7"/>
      <point x="164" y="-7" type="curve" smooth="yes"/>
      <point x="232" y="-7"/>
      <point x="273" y="53"/>
      <point x="273" y="204" type="curve" smooth="yes"/>
      <point x="273" y="359"/>
      <point x="233" y="419"/>
    </contour>
    <contour>
      <point x="164" y="392" type="curve" smooth="yes"/>
      <point x="215" y="392"/>
      <point x="244" y="343"/>
      <point x="244" y="204" type="curve" smooth="yes"/>
      <point x="244" y="67"/>
      <point x="214" y="20"/>
      <point x="164" y="20" type="curve" smooth="yes"/>
      <point x="115" y="20"/>
      <point x="84" y="69"/>
      <point x="84" y="206" type="curve" smooth="yes"/>
      <point x="84" y="345"/>
      <point x="115" y="392"/>
    </contour>
  </outline>
</glyph>
<glyph name="zero.tosf.zero" format="2">
  <advance width="460"/>
  <outline>
    <contour>
      <point x="230" y="567" type="curve"/>
      <point x="115" y="567"/>
      <point x="39" y="473"/>
      <point x="39" y="281" type="curve" smooth="yes"/>
      <point x="39" y="80"/>
      <point x="115" y="-8"/>
      <point x="229" y="-8" type="curve"/>
      <point x="344" y="-8"/>
      <point x="420" y="86"/>
      <point x="420" y="278" type="curve" smooth="yes"/>
      <point x="420" y="479"/>
      <point x="344" y="567"/>
    </contour>
    <contour>
      <point x="230" y="539" type="curve"/>
      <point x="323" y="539"/>
      <point x="389" y="468"/>
      <point x="389" y="278" type="curve" smooth="yes"/>
      <point x="389" y="97"/>
      <point x="323" y="20"/>
      <point x="229" y="20" type="curve"/>
      <point x="136" y="20"/>
      <point x="70" y="91"/>
      <point x="70" y="281" type="curve" smooth="yes"/>
      <point x="70" y="462"/>
      <point x="136" y="539"/>
    </contour>
    <contour>
      <point x="314" y="520" type="line"/>
      <point x="123" y="51" type="line"/>
      <point x="144" y="38" type="line"/>
      <point x="333" y="503" type="line"/>
    </contour>
  </outline>
</glyph>
